<?xml version="1.0" encoding="UTF-8" standalone="no"?>
<!DOCTYPE svg PUBLIC "-//W3C//DTD SVG 1.1//EN" "http://www.w3.org/Graphics/SVG/1.1/DTD/svg11.dtd">
<svg width="100%" height="100%" viewBox="0 0 108 216" version="1.1" xmlns="http://www.w3.org/2000/svg" xmlns:xlink="http://www.w3.org/1999/xlink" xml:space="preserve" xmlns:serif="http://www.serif.com/" style="fill-rule:evenodd;clip-rule:evenodd;stroke-linejoin:round;stroke-miterlimit:2;">
    <g transform="matrix(1,0,0,1,0,193.495)">
        <path d="M0,-3.222C3.7,-8.297 9.354,-9.575 14.958,-11.025C17.957,-11.801 20.883,-12.852 25.105,-14.175C29.424,-12.024 35.417,-9.038 42.045,-5.736C40.84,2.801 32.846,6.121 28,10.953C19.832,5.06 11.346,4.416 2.519,5.295C3.564,2.891 4.615,0.476 5.666,-1.939C3.777,-2.034 1.889,-2.127 0,-2.221L0,-3.222Z" style="fill-rule:nonzero;"/>
    </g>
    <g transform="matrix(1,0,0,1,81.3115,215.485)">
        <path d="M0,-27.357C2.423,-24.168 4.438,-21.069 6.901,-18.38C10.303,-14.668 12.999,-10.895 11.396,-5.512C4.5,-7.928 -1.43,-5.749 -4.402,0.178C-11.875,-3.183 -18.763,-9.737 -28.23,-3.231C-28.23,-4.842 -28.543,-6.185 -28.176,-7.303C-26.647,-11.949 -25.554,-16.907 -23.108,-21.044C-19.27,-27.535 -12.093,-26.796 -5.723,-27.33C-3.642,-27.504 -1.533,-27.357 0,-27.357" style="fill-rule:nonzero;"/>
    </g>
    <g transform="matrix(1,0,0,1,60.311,137.036)">
        <path d="M0,-101.972C10.088,-105.754 9.068,-109.972 8.361,-117.287C8.064,-120.356 7.851,-123.433 7.599,-126.507C8.035,-126.576 8.471,-126.646 8.907,-126.716C10.188,-122.252 11.373,-117.756 12.839,-113.354C13.116,-112.522 14.517,-112.064 15.799,-111.146C13.771,-105.167 9.828,-102.477 0,-101.972M45.972,-7.416C43.281,-27.37 39.542,-47.054 32.697,-66.099C29.506,-74.979 28.131,-84.571 24.42,-93.189C21.332,-100.363 19.81,-107.549 18.405,-115.089C17.396,-120.5 14.973,-126.642 11.131,-130.307C4.65,-136.492 -3.73,-138.5 -12.958,-135.119C-16.104,-133.967 -20.001,-134.554 -23.516,-134.835C-25.781,-135.016 -27.935,-136.345 -30.211,-136.705C-33.931,-137.294 -37.703,-137.493 -40.06,-133.807C-34.155,-129.973 -28.403,-126.51 -22.949,-122.628C-16.301,-117.898 -15.526,-109.87 -19.765,-102.882C-24.493,-95.085 -28.459,-86.826 -32.758,-78.768C-32.367,-78.073 -31.976,-77.376 -31.584,-76.68C-26.502,-76.385 -20.531,-74.257 -16.537,-76.201C-9.608,-79.572 -3.44,-85.113 -3.014,-95.274C0.478,-91.526 3.528,-88.881 5.803,-85.683C11.429,-77.774 17.968,-70.359 19.625,-60.17C19.982,-57.973 21.985,-55.731 23.786,-54.142C29.132,-49.424 29.979,-43.378 29.525,-36.865C29.11,-30.889 28.374,-24.932 28.116,-18.952C28.02,-16.712 28.689,-14.376 29.333,-12.178C31.026,-6.388 33.332,-0.743 34.599,5.131C36.659,14.682 38.03,24.381 39.867,33.984C40.051,34.949 41.434,35.685 42.261,36.528C42.771,35.61 43.558,34.746 43.747,33.766C44.807,28.262 45.723,22.729 46.689,17.206C47.689,1.186 45.972,-7.416 45.972,-7.416" style="fill-rule:nonzero;"/>
    </g>
    <g transform="matrix(1,0,0,1,13,151.71)">
        <path d="M0,-58.488C0,-58.488 3.775,-64.263 4.775,-63.263C4.775,-63.263 -2.72,-38.987 1.14,-8.237C1.14,-8.237 2.508,2.037 3.754,5.775C3.754,5.775 -5,-1.488 -7,-17.488C-7,-17.488 -13,-37.488 0,-58.488" style="fill-rule:nonzero;"/>
    </g>
    <g transform="matrix(0.123498,-0.992345,-0.992345,-0.123498,87.4829,152.468)">
        <path d="M-2.423,-2.838C3.9,-2.979 18.258,1.496 18.258,1.496C5.529,0.581 -2.423,0.83 -2.423,0.83C-2.423,0.83 -6.773,0.521 -24.224,1.056C-24.224,1.056 -15.421,-2.546 -2.423,-2.838" style="fill-rule:nonzero;"/>
    </g>
</svg>
