<svg xmlns="http://www.w3.org/2000/svg" viewBox="0 0 10000 3000">
    <defs>
        <style>
            .a{fill:#f50057}
        </style>
    </defs>
    <path class="a" d="M2225.5,1489v405.15h-41.56V1489c0-194.89-157.9-352.8-352.79-352.8a350.82,350.82,0,0,0-170.38,43.63,443.66,443.66,0,0,1,33.25,29.51c41.14-20.37,87.68-31.59,137.13-31.59,172,0,311.24,139.21,311.24,311.25v405.15h-41.56V1489c0-148.77-120.5-269.69-269.68-269.69a265.82,265.82,0,0,0-108,22.44c8.72,11.22,17,22.44,24.93,34.49a228.79,228.79,0,0,1,83.11-15.38c125.91,0,228.55,102.23,228.55,228.14v405.15h-41.56V1489c0-103.06-83.94-186.58-187-186.58a192.2,192.2,0,0,0-62.33,10.39c6.23,12.46,11.63,25.34,16.62,38.23a150,150,0,0,1,45.71-7.07c80.2,0,145.44,64.83,145.44,145v405.15H1935V1489c0-57.35-46.54-103.47-103.88-103.47a97.89,97.89,0,0,0-33.25,5.4,419.23,419.23,0,0,1,8.31,41.14,60.8,60.8,0,0,1,24.94-5.41,62.52,62.52,0,0,1,62.33,62.34v405.15h-41.56V1489a21.11,21.11,0,0,0-20.77-20.78,20.84,20.84,0,0,0-20.78,20.78v405.15h-41.55V1489c0-194.89-158.33-352.8-353.22-352.8s-353.21,157.91-353.21,352.8v405.15h-41.55V1489c0-217.75,177-394.35,394.76-394.35a392.35,392.35,0,0,1,207.78,59,392.29,392.29,0,0,1,207.77-59C2048.89,1094.69,2225.5,1271.29,2225.5,1489Zm-498.24,0v405.15h-41.55V1489c0-148.77-120.93-269.69-270.11-269.69S1145.5,1340.27,1145.5,1489v405.15H1104V1489c0-172,139.62-311.25,311.65-311.25S1727.26,1317,1727.26,1489Zm-83.11,0v405.15H1602.6V1489c0-103.06-83.94-186.58-187-186.58s-187,83.52-187,186.58v405.15h-41.55V1489c0-125.91,102.22-228.14,228.54-228.14S1644.15,1363.13,1644.15,1489Zm-83.11,0v405.15h-41.55V1489c0-57.35-46.54-103.47-103.89-103.47s-103.88,46.12-103.88,103.47v405.15h-41.56V1489c0-80.2,65.24-145,145.44-145S1561,1408.84,1561,1489Zm-83.1,0v405.15h-41.56V1489a20.78,20.78,0,1,0-41.55,0v405.15h-41.56V1489a62.34,62.34,0,1,1,124.67,0Z"/>
    <path class="a" d="M2559.58,1520.2h517.35c-.83,14.13-2.08,27.84-4.16,41.56H2576.2a117,117,0,0,0,48.2,41.55H3064c-3.74,14.13-8.31,27.84-13.29,41.55H2728.29a157.64,157.64,0,0,1-55.69,10.39c-86.43,0-156.24-69.39-156.24-155.41S2586.17,1344,2672.6,1344a160.06,160.06,0,0,1,54.44,10H2806c-36.15-33.24-83.52-51.52-133.39-51.52-109.28,0-197.79,88.09-197.79,197.38,0,108.87,88.51,197,197.79,197,50.28,0,97.66-18.29,133.81-52l29.09,29.51c-44.05,41.14-101.4,64-162.9,64-132.14,0-239.35-106.79-239.35-238.52,0-132.14,106.8-238.94,239.35-238.94,77.29,0,145.44,36.57,189.08,93.08H2912c-49-80.61-137.55-134.63-239.36-134.63-155.41,0-280.9,125.49-280.9,280.49,0,154.58,125.49,280.08,280.9,280.08a281,281,0,0,0,192.4-76.05l29.5,29.51a322,322,0,0,1-221.9,88.09c-178.26,0-322.46-144.19-322.46-321.63,0-177.85,144.2-322,322.46-322,125.91,0,234,71.48,287.14,176.19h45.71c-56.1-128.4-183.67-217.74-332.85-217.74-201.12,0-364,162.48-364,363.6,0,200.71,162.89,363.18,364,363.18,95.58,0,184.09-36.15,251.82-100.56l28.67,29.51a402.94,402.94,0,0,1-280.49,112.61c-224,0-405.57-181.18-405.57-404.74,0-224,181.6-405.15,405.57-405.15,184.09,0,343.66,123,391.44,300.85H2625.23a115.18,115.18,0,0,0-48.62,41.55h496.16c2.08,13.72,3.33,27.43,4.16,41.56H2560a89.56,89.56,0,0,0-2.08,21.19A159.9,159.9,0,0,0,2559.58,1520.2Z"/>
    <path class="a" d="M3149.63,1894.19h-41.55V938.86h41.55Zm83.11,0h-41.55V938.86h41.55Zm83.11,0h-41.56V938.86h41.56Zm83.11,0H3357.4V938.86H3399Zm83.11,0h-41.56V938.86h41.56Z"/>
    <path class="a" d="M4042.63,1499.84v-561h41.55v561A155.83,155.83,0,1,1,3928.35,1344a189,189,0,0,1,31.17,2.91v-42a189.58,189.58,0,0,0-31.17-2.49c-108.87,0-197.38,88.09-197.38,197.38,0,108.87,88.51,197,197.38,197s197.39-88.1,197.39-197v-561h41.55v561c0,131.73-106.79,238.52-238.94,238.52-131.72,0-238.93-106.79-238.93-238.52,0-132.14,107.21-238.94,238.93-238.94a249.79,249.79,0,0,1,31.17,2.08v-42c-10-.83-20.36-1.66-31.17-1.66-154.58,0-280.07,125.49-280.07,280.49,0,154.58,125.49,280.08,280.07,280.08,155,0,280.49-125.5,280.49-280.08v-561h41.56v561c0,177.44-144.19,321.63-322,321.63s-321.63-143.78-321.63-321.63,143.78-322,321.63-322a251.31,251.31,0,0,1,31.17,1.67v-42c-10.39-.83-20.36-1.25-31.17-1.25-200.7,0-363.18,162.89-363.18,363.6S3727.65,1863,3928.35,1863,4292,1700.55,4292,1499.84v-561h41.56v561c0,223.56-181.59,404.74-405.16,404.74s-404.74-181.18-404.74-404.74c0-224,181.18-405.15,404.74-405.15q15.58,0,31.17,1.24V938.86h41.55v561a72.8,72.8,0,0,1-72.72,72.72c-39.89,0-72.72-32.83-72.72-72.72a72.8,72.8,0,0,1,72.72-72.72,71.47,71.47,0,0,1,31.17,7.06v-44.46a128.26,128.26,0,0,0-31.17-4.15,114.21,114.21,0,0,0-114.27,114.27c0,62.75,51.11,114.27,114.27,114.27S4042.63,1562.59,4042.63,1499.84Zm-114.28-31.17a31.17,31.17,0,1,0,31.17,31.17A31.13,31.13,0,0,0,3928.35,1468.67Z"/>
    <path class="a" d="M5081.05,1447.48V1718c0,194.89-157.91,352.79-353.21,352.79-194.89,0-352.8-157.9-352.8-352.79v-21.19h41.56V1718c0,172,139.2,311.24,311.24,311.24S5039.5,1890,5039.5,1718V1447.48c0-171.62-139.63-311.24-311.66-311.24S4416.6,1275.86,4416.6,1447.9a310.26,310.26,0,0,0,124.66,248.91h41.14V1718c0,80.2,65.24,145.44,145.44,145.44A145.34,145.34,0,0,0,4873.28,1718V1447.48a145.24,145.24,0,0,0-290.47.42c0,73.13,54,133.39,124.25,143.77v-42.38a103.42,103.42,0,0,1-82.69-101.39c0-57.35,46.12-103.89,103.47-103.89s103.89,46.54,103.89,103.47V1718a103.94,103.94,0,0,1-103.89,103.89c-57.35,0-103.47-46.55-103.47-103.89v-21.19c-97.65-40.73-166.22-136.72-166.22-248.91,0-149.18,120.93-270.11,269.69-270.11,149.18,0,270.1,120.93,270.1,269.69V1718c0,149.18-120.92,270.1-270.1,270.1-148.76,0-269.69-120.92-269.69-270.1v-21.19h20A351.12,351.12,0,0,1,4375,1447.9c0-195.31,157.91-353.21,352.8-353.21C4923.14,1094.69,5081.05,1252.59,5081.05,1447.48ZM4499.71,1718c0,126.32,102.22,228.55,228.13,228.55A228.43,228.43,0,0,0,4956.39,1718V1447.48c0-125.91-102.23-228.13-228.55-228.13-125.91,0-228.13,102.22-228.13,228.55,0,118.84,91,216.91,207.35,227.3v-41.56c-93.08-10.38-165.8-89.75-165.8-185.74,0-103.47,83.52-187,186.58-187,103.47,0,187,83.53,187,186.58V1718c0,103-83.52,187-187,187-103.06,0-186.58-83.94-186.58-187h-.41v-21.19h-41.14Zm207.35,0v-21.19h-41.55V1718a62.33,62.33,0,0,0,124.66,0V1447.48c0-34.07-27.84-61.91-62.33-61.91-34.07,0-61.92,27.84-61.92,62.33a62.18,62.18,0,0,0,41.14,58.59v-59c0-11.22,9.56-20.36,20.78-20.36a20.49,20.49,0,0,1,20.78,20.36V1718a20.59,20.59,0,0,1-20.78,20.78A21.12,21.12,0,0,1,4707.06,1718Z"/>
    <path class="a" d="M5600.47,1105.07v41.56h-83.11c-194.89,0-353.21,158.32-353.21,353.21v394.35h-41.56V1499.84c0-217.74,176.61-394.77,394.77-394.77Zm0,83.11v41.56h-83.11c-149.18,0-270.1,120.92-270.1,270.1v394.35H5205.7V1499.84c0-172,139.62-311.66,311.66-311.66Zm0,83.11v41.56h-83.11c-103.47,0-187,83.94-187,187v394.35h-41.55V1499.84a228.42,228.42,0,0,1,228.55-228.55Zm0,83.11V1396h-83.11a103.93,103.93,0,0,0-103.89,103.89v394.35h-41.55V1499.84c0-80.2,65.24-145.44,145.44-145.44Zm0,83.11v41.55h-83.11a20.57,20.57,0,0,0-20.78,20.78v394.35H5455V1499.84a62.25,62.25,0,0,1,62.33-62.33Z"/>
    <path class="a" d="M6452.32,1499.84c0,223.56-181.59,404.74-405.15,404.74S5642,1723.4,5642,1499.84c0-224,181.59-405.15,405.16-405.15S6452.32,1275.86,6452.32,1499.84Zm-768.75,0c0,200.71,162.89,363.18,363.6,363.18s363.59-162.47,363.59-363.18c0-201.12-162.89-363.6-363.59-363.6S5683.57,1298.72,5683.57,1499.84Zm685.64,0c0,177.44-144.19,321.63-322,321.63s-322.05-144.19-322.05-321.63c0-177.85,144.19-322,322.05-322S6369.21,1322,6369.21,1499.84Zm-602.54,0c0,154.58,125.5,280.08,280.5,280.08s280.49-125.5,280.49-280.08c0-155-125.5-280.49-280.49-280.49S5766.67,1344.84,5766.67,1499.84Zm519.43,0c0,131.73-107.21,238.52-238.93,238.52s-238.94-106.79-238.94-238.52c0-132.14,107.21-238.94,238.94-238.94S6286.1,1367.7,6286.1,1499.84Zm-436.32,0c0,108.87,88.51,197,197.39,197s197.38-88.1,197.38-197c0-109.29-88.51-197.38-197.38-197.38S5849.78,1390.55,5849.78,1499.84Zm353.21,0c0,86-69.81,155.41-155.82,155.41s-155.83-69.39-155.83-155.41a155.83,155.83,0,1,1,311.65,0Zm-270.1,0c0,62.75,51.11,113.86,114.28,113.86a114.07,114.07,0,1,0-114.28-113.86Zm187,0a72.72,72.72,0,1,1-72.72-72.72A72.81,72.81,0,0,1,6119.89,1499.84Zm-103.89,0a31.17,31.17,0,1,0,31.17-31.17A31.4,31.4,0,0,0,6016,1499.84Z"/>
    <path class="a" d="M7304.17,1499.84c0,223.56-181.6,404.74-405.16,404.74s-405.15-181.18-405.15-404.74c0-224,181.59-405.15,405.15-405.15S7304.17,1275.86,7304.17,1499.84Zm-768.76,0c0,200.71,162.89,363.18,363.6,363.18s363.6-162.47,363.6-363.18c0-201.12-162.89-363.6-363.6-363.6S6535.41,1298.72,6535.41,1499.84Zm685.65,0c0,177.44-144.2,321.63-322.05,321.63s-322-144.19-322-321.63c0-177.85,144.19-322,322-322S7221.06,1322,7221.06,1499.84Zm-602.54,0c0,154.58,125.49,280.08,280.49,280.08s280.49-125.5,280.49-280.08c0-155-125.49-280.49-280.49-280.49S6618.52,1344.84,6618.52,1499.84Zm519.43,0c0,131.73-107.21,238.52-238.94,238.52s-238.93-106.79-238.93-238.52c0-132.14,107.21-238.94,238.93-238.94S7138,1367.7,7138,1499.84Zm-436.32,0c0,108.87,88.51,197,197.38,197s197.38-88.1,197.38-197c0-109.29-88.51-197.38-197.38-197.38S6701.63,1390.55,6701.63,1499.84Zm353.21,0c0,86-69.81,155.41-155.83,155.41s-155.83-69.39-155.83-155.41a155.83,155.83,0,0,1,311.66,0Zm-270.1,0c0,62.75,51.11,113.86,114.27,113.86a114.07,114.07,0,1,0-114.27-113.86Zm187,0a72.72,72.72,0,1,1-72.72-72.72A72.8,72.8,0,0,1,6971.73,1499.84Zm-103.88,0a31.17,31.17,0,1,0,31.16-31.17A31.39,31.39,0,0,0,6867.85,1499.84Z"/>
    <path class="a" d="M7324.93,1105.07h44l220.23,789.12h-43.63Zm87.68,0h43.63l220.24,789.12h-43.63Zm87.26,0h43.63l220.24,789.12h-43.63Zm87.27,0h43.63l220.65,789.12h-43.63Zm571.78,0-220.23,789.12h-43.64L7674.4,1105.07H7718l24.1,85.61,23.69-85.61h44.05l-46.13,163.73,22,78.12,67.73-241.85h43.63l-89.34,320,21.61,78.12,111.36-398.09h43.63l-133,476.22,21.61,78.53,155-554.75h43.63L7895.05,1738l21.61,78.12,198.63-711Z"/>
    <path class="a" d="M8472.21,1520.2h517.36c-.84,14.13-2.08,27.84-4.16,41.56H8488.84a117,117,0,0,0,48.2,41.55h439.64c-3.74,14.13-8.31,27.84-13.29,41.55H8640.92a157.54,157.54,0,0,1-55.68,10.39c-86.43,0-156.24-69.39-156.24-155.41S8498.81,1344,8585.24,1344a160.06,160.06,0,0,1,54.44,10h78.95c-36.15-33.24-83.52-51.52-133.39-51.52-109.29,0-197.8,88.09-197.8,197.38,0,108.87,88.51,197,197.8,197,50.28,0,97.65-18.29,133.81-52l29.08,29.51c-44,41.14-101.39,64-162.89,64-132.14,0-239.35-106.79-239.35-238.52,0-132.14,106.79-238.94,239.35-238.94,77.29,0,145.44,36.57,189.07,93.08h50.28c-49-80.61-137.54-134.63-239.35-134.63-155.41,0-280.91,125.49-280.91,280.49,0,154.58,125.5,280.08,280.91,280.08a281,281,0,0,0,192.4-76.05l29.5,29.51a322,322,0,0,1-221.9,88.09c-178.27,0-322.46-144.19-322.46-321.63,0-177.85,144.19-322,322.46-322,125.91,0,234,71.48,287.14,176.19h45.71c-56.1-128.4-183.67-217.74-332.85-217.74-201.12,0-364,162.48-364,363.6,0,200.71,162.89,363.18,364,363.18,95.58,0,184.09-36.15,251.82-100.56l28.67,29.51a402.94,402.94,0,0,1-280.49,112.61c-224,0-405.57-181.18-405.57-404.74,0-224,181.59-405.15,405.57-405.15,184.09,0,343.66,123,391.44,300.85H8537.87a115.13,115.13,0,0,0-48.62,41.55h496.16c2.08,13.72,3.32,27.43,4.16,41.56H8472.63a89.56,89.56,0,0,0-2.08,21.19A161.77,161.77,0,0,0,8472.21,1520.2Z"/>
</svg>
