<svg xmlns="http://www.w3.org/2000/svg" viewBox="0 0 800 800">
    <rect width="800" height="800" style="fill:#f50057"/>
    <path d="M952.47,552.47c0,220.72-179.28,399.59-400,399.59s-400-178.87-400-399.59c0-221.11,179.28-400,400-400S952.47,331.36,952.47,552.47Zm-759,0c0,198.17,160.82,358.57,359,358.57s359-160.4,359-358.57c0-198.56-160.84-359-359-359S193.5,353.91,193.5,552.47Zm676.91,0C870.41,727.65,728.06,870,552.47,870s-318-142.37-318-317.55c0-175.57,142.35-317.94,318-317.94S870.41,376.9,870.41,552.47Zm-594.86,0C275.55,705.1,399.45,829,552.47,829S829.38,705.1,829.38,552.47c0-153-123.88-276.92-276.91-276.92S275.55,399.45,275.55,552.47Zm512.81,0c0,130-105.84,235.49-235.89,235.49s-235.9-105.44-235.9-235.49c0-130.44,105.84-235.88,235.9-235.88S788.36,422,788.36,552.47Zm-430.76,0C357.6,660,445,746.94,552.47,746.94s194.87-87,194.87-194.47c0-107.89-87.38-194.86-194.87-194.86S357.6,444.58,357.6,552.47Zm348.71,0c0,84.92-68.92,153.45-153.84,153.45S398.62,637.39,398.62,552.47a153.85,153.85,0,0,1,307.69,0Zm-266.66,0c0,62,50.46,112.43,112.82,112.43A112.63,112.63,0,1,0,439.65,552.47Zm184.61,0a71.8,71.8,0,1,1-71.79-71.77A71.87,71.87,0,0,1,624.26,552.47Zm-102.56,0a30.77,30.77,0,1,0,30.77-30.75A31,31,0,0,0,521.7,552.47Z" style="fill:#333"/>
</svg>
