<?xml version="1.0" encoding="UTF-8" standalone="no"?>
<!DOCTYPE svg PUBLIC "-//W3C//DTD SVG 1.1//EN" "http://www.w3.org/Graphics/SVG/1.1/DTD/svg11.dtd">
<svg width="100%" height="100%" viewBox="0 0 508 508" version="1.1" xmlns="http://www.w3.org/2000/svg" xmlns:xlink="http://www.w3.org/1999/xlink" xml:space="preserve" xmlns:serif="http://www.serif.com/" style="fill-rule:evenodd;clip-rule:evenodd;stroke-miterlimit:2;">
    <rect x="0" y="0" width="507.874" height="507.859" style="fill:none;"/>
    <clipPath id="_clip1">
        <rect x="0" y="0" width="507.874" height="507.859"/>
    </clipPath>
    <g clip-path="url(#_clip1)">
        <g id="penguin" transform="matrix(4.16667,0,0,4.16667,-0.0454001,0)">
            <path d="M87.088,52.568C97.828,48.568 96.738,44.059 95.988,36.269C95.668,32.999 95.448,29.719 95.178,26.449L96.568,26.229C97.928,30.979 99.198,35.769 100.758,40.449C101.048,41.339 102.538,41.829 103.908,42.809C101.748,49.168 97.548,52.038 87.088,52.568M136.087,153.255C133.217,132.006 129.237,111.047 121.947,90.767C118.557,81.317 117.087,71.098 113.137,61.928C109.847,54.288 108.228,46.639 106.728,38.609C105.608,32.839 103.008,26.299 98.938,22.399C92.008,15.82 83.108,13.68 73.289,17.279C69.939,18.499 65.789,17.879 62.049,17.579C59.629,17.389 57.339,15.97 54.919,15.58C50.919,14.95 46.919,14.74 44.43,18.659C50.719,22.749 56.839,26.439 62.649,30.569C69.729,35.569 70.549,44.149 66.039,51.568C61.039,59.868 56.779,68.658 52.199,77.238L53.449,79.468C58.869,79.778 65.219,82.047 69.449,79.978C76.829,76.388 83.388,70.488 83.848,59.668C87.568,63.668 90.848,66.468 93.238,69.878C99.238,78.298 106.188,86.197 107.948,97.047C108.328,99.387 110.467,101.767 112.377,103.467C118.077,108.467 118.977,114.926 118.497,121.856C118.047,128.226 117.267,134.566 116.997,140.936C117.038,143.392 117.474,145.827 118.287,148.145C120.087,154.315 122.547,160.325 123.897,166.575C126.087,176.744 127.547,187.074 129.507,197.304C129.697,198.304 131.177,199.114 132.057,200.014C132.727,199.115 133.26,198.12 133.637,197.064C134.767,191.204 135.737,185.314 136.767,179.434C137.837,162.375 136.007,153.215 136.007,153.215" style="fill:none;fill-rule:nonzero;stroke:black;stroke-width:2.83px;"/>
            <path d="M36.71,114.496C36.71,114.496 40.71,108.347 41.79,109.417C41.79,109.417 33.79,135.266 37.92,168.005C37.92,168.005 39.38,178.944 40.7,182.924C40.7,182.924 31.38,175.195 29.25,158.155C29.25,158.155 22.86,136.866 36.71,114.496" style="fill:none;fill-rule:nonzero;stroke:black;stroke-width:2.83px;"/>
        </g>
    </g>
    <g transform="matrix(4.16667,0,0,4.16667,-0.0454001,0)">
        <path d="M118.637,3.26L118.637,118.626L3.271,118.626L3.271,3.26L118.637,3.26M121.897,0L0.011,0L0.011,121.886L121.897,121.886L121.897,0Z" style="fill-rule:nonzero;"/>
    </g>
</svg>
