<svg xmlns="http://www.w3.org/2000/svg" xmlns:xlink="http://www.w3.org/1999/xlink" viewBox="0 0 400 400">
    <defs>
        <clipPath id="a">
            <rect x="155" y="155" width="90" height="90" style="fill:none"/>
        </clipPath>
        <style>
            .c{fill:none}.b{clip-path:url(#a)}.c{stroke:#000;stroke-miterlimit:10;stroke-width:2.25px}
        </style>
    </defs>
    <path d="M116.76,307.71v12.15h-1.24V307.71a10.6,10.6,0,0,0-15.7-9.28c.35.28.67.57,1,.89a9.24,9.24,0,0,1,4.11-.95,9.34,9.34,0,0,1,9.34,9.34v12.15H113V307.71a8.08,8.08,0,0,0-8.09-8.09,7.93,7.93,0,0,0-3.24.67c.26.34.51.67.75,1a6.88,6.88,0,0,1,9.35,6.39v12.15h-1.25V307.71a5.61,5.61,0,0,0-5.61-5.6,5.78,5.78,0,0,0-1.87.31,11.75,11.75,0,0,1,.5,1.15,4.46,4.46,0,0,1,1.37-.21,4.36,4.36,0,0,1,4.37,4.35v12.15h-1.25V307.71a3.12,3.12,0,0,0-3.12-3.11,2.94,2.94,0,0,0-1,.16c.1.4.18.82.25,1.24a1.78,1.78,0,0,1,.74-.16,1.87,1.87,0,0,1,1.87,1.87v12.15h-1.24V307.71a.64.64,0,0,0-.63-.63.63.63,0,0,0-.62.63v12.15h-1.25V307.71a10.6,10.6,0,0,0-21.19,0v12.15H80.62V307.71a11.84,11.84,0,0,1,11.85-11.83,11.7,11.7,0,0,1,6.23,1.77,11.7,11.7,0,0,1,6.23-1.77A11.82,11.82,0,0,1,116.76,307.71Zm-14.94,0v12.15h-1.25V307.71a8.11,8.11,0,0,0-16.21,0v12.15H83.12V307.71a9.35,9.35,0,0,1,18.7,0Zm-2.5,0v12.15H98.08V307.71a5.61,5.61,0,0,0-11.22,0v12.15H85.61V307.71a6.86,6.86,0,0,1,13.71,0Zm-2.49,0v12.15H95.58V307.71a3.12,3.12,0,0,0-6.23,0v12.15H88.1V307.71a4.37,4.37,0,0,1,8.73,0Zm-2.49,0v12.15H93.09V307.71a.63.63,0,0,0-.62-.63.63.63,0,0,0-.63.63v12.15H90.6V307.71a1.87,1.87,0,0,1,3.74,0Z"/>
    <path d="M126.79,308.64h15.52c0,.43-.07.84-.13,1.25h-14.9a3.5,3.5,0,0,0,1.45,1.24h13.19a13,13,0,0,1-.4,1.25h-9.67a4.75,4.75,0,0,1-1.67.31,4.67,4.67,0,1,1,1.63-9h2.37a5.92,5.92,0,1,0-4,10.28,5.83,5.83,0,0,0,4-1.56l.87.89a7.17,7.17,0,1,1,.79-9.61h1.51A8.39,8.39,0,1,0,136,314.15l.88.89a9.66,9.66,0,1,1,2-11.38h1.37a10.88,10.88,0,1,0-2.43,12.25l.86.88a12.14,12.14,0,1,1,3.33-11.89H128.76a3.48,3.48,0,0,0-1.46,1.25h14.88c.06.41.1.82.13,1.24H126.8a2.78,2.78,0,0,0-.06.64A4.07,4.07,0,0,0,126.79,308.64Z"/>
    <path d="M144.49,319.86h-1.25V291.2h1.25Zm2.49,0h-1.25V291.2H147Zm2.49,0h-1.24V291.2h1.24Zm2.5,0h-1.25V291.2H152Zm2.49,0h-1.25V291.2h1.25Z"/>
    <path d="M171.28,308V291.2h1.24V308a4.68,4.68,0,1,1-4.67-4.67,5.55,5.55,0,0,1,.93.08v-1.26a5.57,5.57,0,0,0-.93-.07,5.92,5.92,0,1,0,5.92,5.92V291.2H175V308a7.17,7.17,0,1,1-7.17-7.17,9.09,9.09,0,0,1,.93.06v-1.25a9.16,9.16,0,0,0-.93-.05,8.41,8.41,0,1,0,8.41,8.41V291.2h1.25V308a9.66,9.66,0,1,1-9.66-9.66,7,7,0,0,1,.93.05v-1.26c-.31,0-.61,0-.93,0A10.91,10.91,0,1,0,178.76,308V291.2H180V308a12.15,12.15,0,1,1-12.15-12.15q.47,0,.93,0V291.2H170V308a2.18,2.18,0,1,1-2.18-2.18,2.05,2.05,0,0,1,.93.21v-1.33a3.54,3.54,0,0,0-.93-.13,3.43,3.43,0,1,0,3.43,3.43Zm-3.43-.93a.93.93,0,0,0-.93.93.93.93,0,1,0,1.86,0A.92.92,0,0,0,167.85,307.1Z"/>
    <path d="M202.43,306.46v8.12a10.59,10.59,0,0,1-21.18,0v-.64h1.25v.64a9.34,9.34,0,0,0,18.68,0v-8.12a9.34,9.34,0,1,0-14.94,7.48h1.23v.64a4.37,4.37,0,0,0,8.73,0v-8.12a4.36,4.36,0,1,0-5,4.33v-1.28a3.11,3.11,0,1,1,3.74-3.05v8.12a3.11,3.11,0,1,1-6.22,0v-.64a8.1,8.1,0,1,1,11.21-7.48v8.12a8.1,8.1,0,1,1-16.2,0v-.64h.6a10.59,10.59,0,1,1,18.09-7.48ZM185,314.58a6.85,6.85,0,1,0,13.7,0v-8.12a6.85,6.85,0,1,0-7.48,6.83V312a5.61,5.61,0,1,1,6.23-5.58v8.12a5.6,5.6,0,1,1-11.2,0h0v-.64H185Zm6.22,0v-.64H190v.64a1.87,1.87,0,1,0,3.74,0v-8.12a1.86,1.86,0,1,0-2.49,1.77v-1.77a.63.63,0,0,1,1.25,0v8.12a.63.63,0,0,1-.63.62A.64.64,0,0,1,191.21,314.58Z"/>
    <path d="M218,296.19v1.24h-2.49a10.61,10.61,0,0,0-10.6,10.6v11.83h-1.24V308a11.85,11.85,0,0,1,11.84-11.84Zm0,2.49v1.25h-2.49a8.1,8.1,0,0,0-8.1,8.1v11.83h-1.25V308a9.35,9.35,0,0,1,9.35-9.35Zm0,2.49v1.25h-2.49a5.61,5.61,0,0,0-5.61,5.61v11.83h-1.25V308a6.86,6.86,0,0,1,6.86-6.86Zm0,2.5v1.24h-2.49A3.12,3.12,0,0,0,212.4,308v11.83h-1.24V308a4.36,4.36,0,0,1,4.36-4.36Zm0,2.49v1.25h-2.49a.61.61,0,0,0-.62.62v11.83h-1.25V308a1.87,1.87,0,0,1,1.87-1.87Z"/>
    <path d="M243.57,308a12.16,12.16,0,1,1-12.15-12.15A12.15,12.15,0,0,1,243.57,308Zm-23.06,0a10.91,10.91,0,1,0,10.91-10.91A10.9,10.9,0,0,0,220.51,308Zm20.57,0a9.67,9.67,0,1,1-9.66-9.66A9.66,9.66,0,0,1,241.08,308ZM223,308a8.42,8.42,0,1,0,8.42-8.41A8.4,8.4,0,0,0,223,308Zm15.58,0a7.17,7.17,0,1,1-7.16-7.17A7.17,7.17,0,0,1,238.58,308Zm-13.09,0a5.93,5.93,0,1,0,5.93-5.92A5.92,5.92,0,0,0,225.49,308Zm10.6,0a4.68,4.68,0,1,1-4.67-4.67A4.66,4.66,0,0,1,236.09,308Zm-8.1,0a3.43,3.43,0,1,0,3.43-3.43A3.43,3.43,0,0,0,228,308Zm5.61,0a2.19,2.19,0,1,1-2.18-2.18A2.19,2.19,0,0,1,233.6,308Zm-3.12,0a.94.94,0,1,0,1.87,0,.94.94,0,0,0-1.87,0Z"/>
    <path d="M269.12,308A12.15,12.15,0,1,1,257,295.88,12.14,12.14,0,0,1,269.12,308Zm-23.06,0A10.91,10.91,0,1,0,257,297.12,10.91,10.91,0,0,0,246.06,308Zm20.57,0a9.66,9.66,0,1,1-9.66-9.66A9.66,9.66,0,0,1,266.63,308Zm-18.07,0a8.42,8.42,0,1,0,8.41-8.41A8.4,8.4,0,0,0,248.56,308Zm15.58,0a7.17,7.17,0,1,1-7.17-7.17A7.17,7.17,0,0,1,264.14,308Zm-13.09,0a5.92,5.92,0,1,0,5.92-5.92A5.91,5.91,0,0,0,251.05,308Zm10.6,0a4.68,4.68,0,1,1-4.68-4.67A4.67,4.67,0,0,1,261.65,308Zm-8.11,0A3.43,3.43,0,1,0,257,304.6,3.43,3.43,0,0,0,253.54,308Zm5.61,0a2.18,2.18,0,1,1-2.18-2.18A2.18,2.18,0,0,1,259.15,308ZM256,308a.94.94,0,1,0,.93-.93A.93.93,0,0,0,256,308Z"/>
    <path d="M269.75,296.19h1.32l6.61,23.67h-1.31Zm2.63,0h1.31l6.6,23.67H279Zm2.62,0h1.31l6.6,23.67H281.6Zm2.61,0h1.31l6.62,23.67h-1.31Zm17.16,0-6.61,23.67h-1.31l-6.62-23.67h1.31l.72,2.57.71-2.57h1.33l-1.39,4.91.66,2.34,2-7.25h1.3l-2.68,9.6.65,2.34,3.34-11.94h1.31l-4,14.28.65,2.36,4.65-16.64h1.31l-5.3,19,.65,2.35,6-21.33Z"/>
    <path d="M304.17,308.64h15.52c0,.43-.06.84-.13,1.25H304.67a3.47,3.47,0,0,0,1.44,1.24H319.3a13,13,0,0,1-.4,1.25h-9.67a4.71,4.71,0,0,1-1.67.31,4.67,4.67,0,1,1,1.63-9h2.37a5.92,5.92,0,1,0,0,8.72l.88.89a7.18,7.18,0,1,1,.78-9.61h1.51a8.39,8.39,0,1,0-1.41,10.49l.88.89a9.66,9.66,0,1,1,2-11.38h1.37a10.88,10.88,0,1,0-2.43,12.25l.86.88a12.14,12.14,0,1,1,3.33-11.89H306.14a3.48,3.48,0,0,0-1.46,1.25h14.88c.07.41.1.82.13,1.24H304.18a2.78,2.78,0,0,0-.06.64A4.07,4.07,0,0,0,304.17,308.64Z"/>
    <g class="b">
        <path d="M157.25,157.25h85.5v85.5h-85.5ZM155,245h90V155H155Z"/>
        <g class="b">
            <circle class="c" cx="217.1" cy="217.1" r="5.74"/>
            <circle class="c" cx="217.1" cy="217.1" r="14.96"/>
            <circle class="c" cx="217.1" cy="217.1" r="24.19"/>
            <circle class="c" cx="217.1" cy="217.1" r="33.41"/>
            <circle class="c" cx="217.1" cy="217.1" r="42.64"/>
        </g>
    </g>
</svg>
